<?xml version="1.0" standalone="no"?>
<!DOCTYPE svg PUBLIC "-//W3C//DTD SVG 20010904//EN"
 "http://www.w3.org/TR/2001/REC-SVG-20010904/DTD/svg10.dtd">
<svg version="1.0" xmlns="http://www.w3.org/2000/svg"
 width="300.000000pt" height="300.000000pt" viewBox="0 0 300.000000 300.000000"
 preserveAspectRatio="xMidYMid meet">
<metadata>
Created by potrace 1.11, written by Peter Selinger 2001-2013
</metadata>
<g transform="translate(0.000000,300.000000) scale(0.100000,-0.100000)"
fill="#000000" stroke="none">
<path d="M1384 2904 c-100 -21 -165 -50 -335 -155 -90 -56 -177 -109 -194
-119 -107 -62 -500 -305 -546 -338 -66 -46 -132 -139 -156 -221 -16 -51 -17
-128 -17 -811 0 -415 3 -773 7 -794 14 -73 74 -181 133 -240 53 -52 158 -115
224 -133 44 -13 1918 -15 1980 -2 186 37 345 195 380 374 8 43 10 279 8 825
l-3 765 -27 57 c-35 75 -81 135 -139 181 -26 20 -50 37 -54 37 -3 0 -191 114
-418 253 -227 139 -433 262 -458 274 -111 52 -269 71 -385 47z m232 -307 c23
-9 194 -109 380 -223 187 -115 384 -236 438 -269 68 -41 106 -71 120 -94 19
-33 19 -55 19 -760 0 -720 0 -726 -21 -768 -25 -49 -61 -79 -111 -94 -24 -7
-336 -9 -963 -7 l-926 3 -39 31 c-21 17 -47 46 -58 65 -19 33 -20 54 -22 754
-2 471 1 731 7 751 13 39 45 69 121 114 33 19 206 125 385 235 385 236 434
266 434 261 0 -2 19 2 43 9 51 15 137 12 193 -8z"/>
<path d="M975 2117 c-38 -23 -122 -73 -186 -109 -63 -37 -124 -77 -135 -89
-18 -20 -19 -43 -20 -653 0 -347 3 -642 6 -656 10 -38 48 -45 246 -44 203 1
230 5 240 36 4 12 6 93 6 180 -1 137 1 160 17 179 18 22 20 23 349 23 309 0
332 -1 351 -18 20 -18 21 -30 21 -191 0 -160 1 -173 20 -190 18 -17 41 -18
232 -18 203 0 212 1 229 21 15 19 17 59 16 438 0 392 -1 418 -18 435 -21 21
45 20 -715 20 -377 0 -465 2 -480 14 -18 13 -19 32 -22 321 -2 267 -5 311 -19
326 -25 28 -62 21 -138 -25z"/>
<path d="M1886 2138 c-13 -19 -16 -61 -16 -255 0 -220 1 -234 20 -253 19 -19
33 -20 228 -20 114 0 212 4 218 8 24 16 31 52 32 157 0 126 -9 150 -67 181
-20 10 -38 21 -41 24 -7 7 -36 24 -95 56 -27 14 -85 48 -128 75 -88 55 -127
62 -151 27z"/>
</g>
</svg>
